HIERARCHY
ROOT Hips
{
	OFFSET 0.00000 0.00000 0.00000
	CHANNELS 6 Xposition Yposition Zposition Zrotation Yrotation Xrotation 
	JOINT LHipJoint
	{
		OFFSET 0 0 0
		CHANNELS 3 Zrotation Yrotation Xrotation
		JOINT LeftUpLeg
		{
			OFFSET 1.67711 -1.75950 0.70433
			CHANNELS 3 Zrotation Yrotation Xrotation
			JOINT LeftLeg
			{
				OFFSET 2.44937 -6.72958 0.00000
				CHANNELS 3 Zrotation Yrotation Xrotation
				JOINT LeftFoot
				{
					OFFSET 2.61292 -7.17894 0.00000
					CHANNELS 3 Zrotation Yrotation Xrotation
					JOINT LeftToeBase
					{
						OFFSET 0.17811 -0.48914 1.82515
						CHANNELS 3 Zrotation Yrotation Xrotation
						End Site
						{
							OFFSET -0.00112 -0.00292 0.95564
						}
					}
				}
			}
		}
	}
	JOINT RHipJoint
	{
		OFFSET 0 0 0
		CHANNELS 3 Zrotation Yrotation Xrotation
		JOINT RightUpLeg
		{
			OFFSET -1.61866 -1.75949 0.70433
			CHANNELS 3 Zrotation Yrotation Xrotation
			JOINT RightLeg
			{
				OFFSET -2.36243 -6.49072 0.00000
				CHANNELS 3 Zrotation Yrotation Xrotation
				JOINT RightFoot
				{
					OFFSET -2.64336 -7.26259 0.00000
					CHANNELS 3 Zrotation Yrotation Xrotation
					JOINT RightToeBase
					{
						OFFSET -0.18169 -0.49935 1.90192
						CHANNELS 3 Zrotation Yrotation Xrotation
						End Site
						{
							OFFSET 0.00039 0.00229 0.99264
						}
					}
				}
			}
		}
	}
	JOINT LowerBack
	{
		OFFSET 0 0 0
		CHANNELS 3 Zrotation Yrotation Xrotation
		JOINT Spine
		{
			OFFSET -0.01926 2.19655 -0.12599
			CHANNELS 3 Zrotation Yrotation Xrotation
			JOINT Spine1
			{
				OFFSET 0.01663 2.20532 -0.00079
				CHANNELS 3 Zrotation Yrotation Xrotation
				JOINT Neck
				{
					OFFSET 0 0 0
					CHANNELS 3 Zrotation Yrotation Xrotation
					JOINT Neck1
					{
						OFFSET 0.10604 1.75174 0.14226
						CHANNELS 3 Zrotation Yrotation Xrotation
						JOINT Head
						{
							OFFSET -0.09898 1.68516 -0.48414
							CHANNELS 3 Zrotation Yrotation Xrotation
							End Site
							{
								OFFSET -0.02896 1.78316 -0.18415
							}
						}
					}
				}
				JOINT LeftShoulder
				{
					OFFSET 0 0 0
					CHANNELS 3 Zrotation Yrotation Xrotation
					JOINT LeftArm
					{
						OFFSET 3.30655 1.16959 -0.30867
						CHANNELS 3 Zrotation Yrotation Xrotation
						JOINT LeftForeArm
						{
							OFFSET 5.35289 -0.00000 -0.00000
							CHANNELS 3 Zrotation Yrotation Xrotation
							JOINT LeftHand
							{
								OFFSET 3.27727 -0.00000 -0.00000
								CHANNELS 3 Zrotation Yrotation Xrotation
								JOINT LeftFingerBase
								{
									OFFSET 0 0 0
									CHANNELS 3 Zrotation Yrotation Xrotation
									JOINT LeftHandIndex1
									{
										OFFSET 0.54443 0.00002 0.00009
										CHANNELS 3 Zrotation Yrotation Xrotation
										End Site
										{
											OFFSET 0.43891 -0.00000 -0.00000
										}
									}
								}
								JOINT LThumb
								{
									OFFSET 0 0 0
									CHANNELS 3 Zrotation Yrotation Xrotation
									End Site
									{
										OFFSET 0.44564 0.00002 0.44570
									}
								}
							}
						}
					}
				}
				JOINT RightShoulder
				{
					OFFSET 0 0 0
					CHANNELS 3 Zrotation Yrotation Xrotation
					JOINT RightArm
					{
						OFFSET -3.27172 0.97864 -0.36131
						CHANNELS 3 Zrotation Yrotation Xrotation
						JOINT RightForeArm
						{
							OFFSET -5.52076 -0.00317 -0.00590
							CHANNELS 3 Zrotation Yrotation Xrotation
							JOINT RightHand
							{
								OFFSET -3.32364 -0.00000 -0.00000
								CHANNELS 3 Zrotation Yrotation Xrotation
								JOINT RightFingerBase
								{
									OFFSET 0 0 0
									CHANNELS 3 Zrotation Yrotation Xrotation
									JOINT RightHandIndex1
									{
										OFFSET -0.73223 -0.00000 -0.00000
										CHANNELS 3 Zrotation Yrotation Xrotation
										End Site
										{
											OFFSET -0.59035 -0.00000 -0.00000
										}
									}
								}
								JOINT RThumb
								{
									OFFSET 0 0 0
									CHANNELS 3 Zrotation Yrotation Xrotation
									End Site
									{
										OFFSET -0.59936 -0.00000 0.59936
									}
								}
							}
						}
					}
				}
			}
		}
	}
}
MOTION
Frames: 9
Frame Time: .0083333
11.0908 21.0722 -22.9614 -326.7540 -80.0563 333.7690 0.0000 0.0000 0.0000 -24.2332 -6.9983 1.1783 2.8596 10.4643 30.4936 -1.0069 -19.7159 17.3319 7.3107 -15.5880 -50.0397 0.0000 0.0000 0.0000 4.8831 13.4066 -53.7227 -10.9794 -17.9250 62.7146 -0.8101 -0.9409 -17.3700 -0.2912 3.4703 -9.5910 -2.6462 -0.3506 12.6283 1.6649 -0.9010 4.6245 3.3607 -0.5506 -2.1605 13.5496 14.9971 -4.2002 -24.2584 23.3198 14.9345 -7.5998 10.2201 10.1414 -0.0000 -0.0000 0.0000 -80.3716 11.7079 37.9952 42.1330 -49.2841 -20.0413 -0.0000 0.0000 -11.1328 0.0026 17.8382 0.0008 -7.1250 0.0000 -0.0000 -26.0936 46.0254 -0.7086 -0.0000 -0.0000 0.0000 80.0504 -2.3650 28.9593 -20.8631 31.6681 -5.9779 0.0000 -0.0000 -4.3673 -16.0443 21.6579 -6.0585 7.1250 -0.0000 -0.0000 8.0206 -7.7101 6.9422
10.9546 21.1181 -22.9891 -324.3340 -79.9014 331.5740 0.0000 0.0000 0.0000 -24.5268 -7.2330 0.5637 3.0319 10.7466 31.4299 -0.8975 -19.5980 18.7061 6.2948 -14.7081 -46.1537 0.0000 0.0000 0.0000 4.7800 13.3040 -53.2820 -10.8945 -17.8831 62.4385 -0.8865 -0.6961 -18.0573 -0.1433 2.4399 -6.7229 -3.3620 -0.4421 12.7160 1.8630 -1.1017 4.5332 4.0067 -0.6516 -2.2673 13.5351 15.2093 -4.1242 -24.5904 23.7095 14.9580 -7.6453 10.3785 10.2777 0.0000 -0.0000 0.0000 -80.8684 12.1803 37.7889 40.9756 -48.6374 -19.1683 -0.0000 0.0000 -11.7076 -2.4907 14.4783 -0.6231 -7.1250 0.0000 -0.0000 -26.7679 42.7250 1.6307 0.0000 -0.0000 0.0000 79.6480 -2.2037 29.3200 -21.1179 31.9657 -6.1122 0.0000 -0.0000 -4.5636 -15.9090 21.9981 -6.0941 7.1250 -0.0000 -0.0000 8.1240 -7.3822 7.0863
10.8191 21.1645 -23.0107 -323.4050 -79.8175 330.9600 0.0000 0.0000 0.0000 -24.0614 -6.1349 -0.7856 3.2153 11.0356 32.4002 -0.9476 -20.6171 20.3621 5.8694 -14.3006 -44.4552 0.0000 0.0000 0.0000 4.9200 13.0948 -52.9963 -10.8495 -17.8606 62.2917 -0.8448 -1.4117 -17.9282 -0.4682 4.3889 -12.1735 -3.3785 -0.5308 12.5905 1.8042 -1.2138 4.4452 3.9681 -0.7028 -2.2820 13.7827 15.3276 -4.1239 -24.6684 23.9015 15.0460 -7.6721 10.4710 10.4003 0.0000 -0.0000 0.0000 -80.5319 12.5840 38.3363 40.0852 -48.1203 -18.5027 -0.0000 0.0000 -12.4197 22.0459 26.6326 10.2888 -7.1250 0.0000 -0.0000 -9.0278 58.1665 -2.9237 0.0000 -0.0000 0.0000 79.7942 -2.1130 29.5162 -21.4256 32.3218 -6.2759 0.0000 -0.0000 -4.7985 -15.1243 22.4269 -5.8870 7.1250 -0.0000 -0.0000 8.6396 -7.0489 7.6032
10.6845 21.2042 -23.0215 -322.7450 -79.7933 330.5920 0.0000 0.0000 0.0000 -25.1293 -9.3915 -0.0696 3.4471 11.3859 33.5925 -0.5425 -17.8059 19.6638 5.2025 -13.6082 -41.6902 0.0000 0.0000 0.0000 5.2538 12.7175 -52.7701 -10.7976 -17.8346 62.1226 -0.9107 -1.5721 -18.6609 -0.4349 4.2318 -11.7298 -3.5881 -0.6233 12.3600 2.0817 -1.3443 4.4105 4.3915 -0.7722 -2.1676 13.4075 15.4480 -4.0300 -24.9587 24.1549 14.9806 -7.6764 10.5546 10.4165 0.0000 0.0000 0.0000 -80.8435 12.8377 38.8670 39.1448 -47.5550 -17.8055 -0.0000 0.0000 -13.3620 30.4289 28.1997 15.5126 -7.1250 0.0000 -0.0000 -0.0798 61.8548 -0.0327 0.0000 0.0000 0.0000 79.1651 -1.9822 30.1516 -21.8310 32.7855 -6.4941 0.0000 -0.0000 -5.5462 -14.4273 22.4452 -5.6098 7.1250 -0.0000 -0.0000 9.0773 -7.1183 7.9860
10.5526 21.2515 -23.0400 -321.2480 -79.7378 329.2990 0.0000 0.0000 0.0000 -25.6783 -10.2128 -0.4037 3.7205 11.7789 34.9542 -0.3486 -16.4502 19.6058 6.3171 -14.7287 -46.2413 0.0000 0.0000 0.0000 4.9099 12.8828 -52.2876 -10.7981 -17.8349 62.1243 -0.9993 -0.1271 -18.9474 -0.2152 2.9862 -8.2402 -3.6199 -0.6851 12.2350 2.0245 -1.4269 4.4211 4.3566 -0.8150 -2.0809 13.7095 15.6271 -4.0482 -25.0682 24.4360 15.0321 -7.6988 10.6911 10.5652 0.0000 -0.0000 0.0000 -80.8140 12.9867 39.2281 37.9869 -46.8310 -16.9561 -0.0000 0.0000 -14.4335 26.8181 27.1195 12.9770 -7.1250 0.0000 -0.0000 -3.9230 59.7877 -1.4174 0.0000 -0.0000 0.0000 79.0425 -1.7920 30.3290 -22.1454 33.1410 -6.6652 0.0000 -0.0000 -5.9190 -14.4118 22.2083 -5.5477 7.1250 -0.0000 -0.0000 9.0763 -7.3586 7.9420
10.4275 21.2739 -23.0642 -319.6480 -79.6366 327.8090 0.0000 0.0000 0.0000 -25.6454 -9.2982 -1.6819 4.0793 12.2652 36.6766 -0.3381 -16.5562 19.9151 6.7438 -15.1123 -47.8987 0.0000 0.0000 0.0000 5.1993 12.6409 -51.9239 -10.7563 -17.8137 61.9876 -1.0280 -1.1346 -19.5993 -0.3504 3.8035 -10.5246 -3.8237 -0.5813 12.2940 1.9298 -1.3165 4.3959 4.3602 -0.7578 -2.1476 13.9855 15.6026 -4.0705 -25.1185 24.4276 15.1889 -7.7648 10.6897 10.6726 -0.0000 0.0000 0.0000 -80.9126 13.0329 39.3548 36.5010 -45.8546 -15.8809 -0.0000 0.0000 -15.1408 24.0103 26.6232 11.2886 -7.1250 0.0000 -0.0000 -6.8682 58.6039 -2.2915 -0.0000 0.0000 0.0000 79.0532 -1.7895 30.1933 -22.4907 33.5272 -6.8549 0.0000 -0.0000 -6.2136 -14.8767 21.8714 -5.6515 7.1250 -0.0000 -0.0000 8.7684 -7.6411 7.6167
10.3016 21.3191 -23.0783 -319.7540 -79.7033 327.9940 0.0000 0.0000 0.0000 -25.7203 -9.7012 -2.4490 4.5188 12.8205 38.7004 -0.2497 -15.7143 19.5702 7.0912 -15.4082 -49.2184 0.0000 0.0000 0.0000 5.3169 12.7540 -51.2557 -10.7016 -17.7859 61.8086 -1.1108 -0.2269 -20.0120 -0.2272 3.0683 -8.4690 -3.4737 -0.5570 12.3018 1.8094 -1.2461 4.3755 4.0257 -0.7178 -2.1926 14.3793 15.5876 -4.0329 -25.1949 24.4213 15.2931 -7.8606 10.7033 10.7715 0.0000 0.0000 0.0000 -80.0499 13.1875 40.9187 35.8130 -45.3840 -15.3892 -0.0000 0.0000 -16.6018 34.4094 27.4847 17.5425 -7.1250 0.0000 -0.0000 5.1518 62.1414 2.1504 0.0000 0.0000 0.0000 79.2109 -1.8724 30.3865 -22.9288 34.0108 -7.0984 0.0000 -0.0000 -6.7520 -16.0568 21.5025 -6.0223 7.1250 -0.0000 -0.0000 8.0045 -7.8662 6.9032
10.1807 21.3492 -23.0808 -321.3090 -80.0283 329.5330 0.0000 0.0000 0.0000 -24.8680 -8.2940 -4.1187 5.0364 13.4247 40.9798 -0.3124 -16.2127 19.6410 7.3870 -15.6493 -50.3231 0.0000 0.0000 0.0000 5.9626 12.8453 -50.5463 -10.6412 -17.7550 61.6107 -1.1471 -0.2525 -20.3446 -0.3137 3.6007 -9.9559 -2.7494 -0.6469 12.2847 1.8717 -1.2819 4.4357 3.6831 -0.7358 -2.1339 14.6381 15.6966 -3.9952 -25.4284 24.6169 15.2816 -7.9456 10.7968 10.8871 0.0000 0.0000 0.0000 -80.1016 13.2484 40.7856 34.6840 -44.5851 -14.5911 -0.0000 0.0000 -15.7548 30.3399 27.9577 15.3440 -7.1250 0.0000 -0.0000 -0.0952 61.5709 -0.0384 0.0000 0.0000 0.0000 79.2683 -1.8166 30.6548 -23.3270 34.4444 -7.3224 0.0000 -0.0000 -6.9471 -17.2784 21.1299 -6.3978 7.1250 -0.0000 -0.0000 7.2087 -8.0874 6.1732
10.0648 21.3968 -23.0718 -328.7520 -80.8942 336.7920 0.0000 0.0000 0.0000 -23.9262 -9.7149 -4.5058 5.6496 14.0799 43.5585 -0.1680 -14.5436 18.6966 7.1389 -15.4478 -49.3977 0.0000 0.0000 0.0000 7.9601 12.9140 -49.5347 -10.5002 -17.6817 61.1475 -1.1919 -0.3242 -20.7635 -0.3314 3.6997 -10.2334 -0.6373 -0.7740 12.3111 2.0987 -1.2118 4.5754 2.7130 -0.6971 -2.0505 14.9304 15.7569 -4.0976 -25.5918 24.7260 15.3163 -8.0192 10.8438 11.0197 0.0000 0.0000 0.0000 -80.3370 13.1657 40.2518 33.4907 -43.7038 -13.7599 -0.0000 0.0000 -14.0813 26.9440 29.2342 13.9414 -7.1250 0.0000 -0.0000 -4.7714 62.0388 -1.9797 0.0000 0.0000 0.0000 79.5358 -1.6967 30.5223 -23.7071 34.8530 -7.5385 0.0000 -0.0000 -6.8307 -17.0302 20.9357 -6.2461 7.1250 -0.0000 -0.0000 7.3558 -8.3186 6.2675
